<svg viewBox="0 0 1440 416" xmlns="http://www.w3.org/2000/svg"><path d="M1440 132.6v167.1c-13.2 7-28.2 10.9-44.2 10.9-52.2 0-94.5-42.3-94.5-94.5s42.3-94.5 94.5-94.5c16 .1 31 4.1 44.2 11z" fill="#dfa47c"/><path d="M1440 152.7v126.9c-12.5 8.7-27.8 13.9-44.2 13.9-42.7 0-77.3-34.6-77.3-77.3s34.6-77.3 77.3-77.3c16.5 0 31.7 5.1 44.2 13.8z" fill="#fbd9af"/><circle cx="1371" cy="242.4" fill="#dfa47c" r="8.6"/><circle cx="1405.4" cy="225.3" fill="#dfa47c" r="8.6"/><circle cx="1405.4" cy="259.6" fill="#dfa47c" r="8.6"/><path d="M.6.5h1438.9v415H.6z" fill="none"/><g fill="#206b50"><path d="M1354.3 173.5s0 .1 0 0l-.1.1c-.1.1-.1.2-.2.3v.5l1.8 7.4.2 1 1.1 4.8.2.8c0 .1 0 .1.1.2.5 1.9 1.5 3.5 2.9 4.8.4.4.9.7 1.4 1 .9.6 1.9 1 3 1.3l14.1 3.4h.5c.1 0 .2-.1.3-.2l.1-.1.1-.1c.1-.2.2-.3.2-.5v-.3l-3.4-14.1c-.2-1-.6-1.9-1.1-2.7-.3-.5-.6-1-1-1.4-1.2-1.4-2.9-2.5-4.8-3-.1 0-.2-.1-.4-.1l-.7-.2-4.8-1.1-1-.3-7.6-1.8h-.3c-.3.2-.4.2-.6.3z"/><path d="M1360.3 193.5h14.6v1h-13.2c-.5-.2-1-.6-1.4-1z"/><path d="M1374.3 179.9c.4.4.7.9 1 1.4v12.8h-1v-1.2zm-17.1 7.8h11.9v.9h-11.6c0-.1 0-.1-.1-.2z"/><path d="M1368.5 176.6l.7.2c.1 0 .2.1.4.1v11.4h-.9v-11.7zm-12.7 5.3h7.4v1h-7.2z"/><path d="M1362.7 175.2l1 .2v7h-1z"/><path d="M1354.2 173.6c.1 0 .1-.1 0 0 .2-.2.4-.2.6-.2l25 25c0 .2-.1.4-.2.5l-.1.1-.1.1c-.1.1-.2.1-.3.2L1354 174c.1-.1.1-.3.2-.4zm63.1-10c0-.1 0-.1 0 0l-.1-.1c-.1-.1-.2-.1-.3-.2h-.5l-7.4 1.8-1 .2-4.8 1.1-.8.2c-.1 0-.1 0-.2.1-1.9.5-3.5 1.5-4.8 2.9-.4.4-.7.9-1 1.4-.6.9-1 1.9-1.3 3l-3.4 14.1v.5c0 .1.1.2.2.3l.1.1.1.1c.2.1.3.2.5.2h.3l14.1-3.4c1-.2 1.9-.6 2.7-1.1.5-.3 1-.6 1.4-1 1.4-1.2 2.5-2.9 3-4.8 0-.1.1-.2.1-.4l.2-.7 1.1-4.8.3-1 1.8-7.6v-.3c-.1-.3-.2-.5-.3-.6z"/><path d="M1397.3 169.6v14.6h-1V171c.3-.5.6-1 1-1.4z"/><path d="M1411 183.6c-.4.4-.9.7-1.4 1h-12.8v-1h1.2zm-7.9-17.1v11.9h-.9v-11.6c.1 0 .1 0 .2-.1z"/><path d="M1414.3 177.8l-.2.7c0 .1-.1.2-.1.4h-11.4v-.9zm-5.4-12.7v7.4h-1v-7.2z"/><path d="M1415.7 172l-.3 1h-7v-1z"/><path d="M1417.2 163.5c.1 0 .1 0 0 0 .2.2.2.4.2.6l-25 25c-.2 0-.4-.1-.5-.2l-.1-.1-.1-.1c-.1-.1-.1-.2-.2-.3l25.2-25.2c.3.1.4.2.5.3z"/></g><path d="M1282.4 325.9c-17.6 17.6-46 17.6-63.6 0s-17.6-46 0-63.6zm-40.5-124.5c-17.6 17.6-46 17.6-63.6 0s-17.6-46 0-63.6z" fill="#fbd9af"/><path d="M1367.1 50.3c0 .1 0 .1 0 0-.1.1-.2.2-.2.3v.3l1.1 4.7.2.7.7 3 .1.5v.1c.3 1.2 1 2.2 1.8 3 .3.2.6.5.9.7.6.4 1.2.6 1.9.8l8.9 2.1h.3c.1 0 .2-.1.2-.1.1-.1.1-.2.1-.3v-.2L1381 57c-.1-.6-.4-1.2-.7-1.7-.2-.3-.4-.6-.7-.9-.8-.9-1.8-1.6-3-1.9-.1 0-.2 0-.2-.1l-.4-.1-3-.7-.7-.2-4.8-1.1h-.2c0-.1-.1-.1-.2 0z" fill="#6abe05"/><path d="M1370.9 63h9.2v.6h-8.4c-.2-.1-.5-.4-.8-.6z" fill="#6abe05"/><path d="M1379.8 54.3c.2.3.5.6.7.9v8.1h-.6v-.8zm-10.9 5h7.5v.6h-7.4v-.1z" fill="#6abe05"/><path d="M1376.1 52.2l.4.1c.1 0 .2 0 .2.1v7.2h-.6zm-8 3.4h4.7v.7h-4.6z" fill="#6abe05"/><path d="M1372.5 51.4l.6.1v4.4h-.6z" fill="#6abe05"/><path d="M1367.1 50.3c.1-.1.3-.1.4-.2l15.9 15.9c0 .1 0 .2-.1.3-.1 0-.1.1-.2.1l-16-16c-.1.1-.1 0 0-.1 0 .1 0 .1 0 0zm-44.8 305.9s0 .1 0 0c-.1.1-.2.2-.2.3v.3l1.1 4.7.2.7.7 3 .1.5v.1c.3 1.2 1 2.2 1.8 3 .3.2.6.5.9.7.6.4 1.2.6 1.9.8l8.9 2.1h.3c.1 0 .2-.1.2-.1.1-.1.1-.2.1-.3v-.2l-2.1-8.9c-.1-.6-.4-1.2-.7-1.7-.2-.3-.4-.6-.7-.9-.8-.9-1.8-1.6-3-1.9-.1 0-.2 0-.2-.1l-.4-.1-3-.7-.7-.2-4.8-1.1h-.2c0-.1-.1-.1-.2 0z" fill="#6abe05"/><path d="M1326.1 368.9h9.2v.6h-8.4c-.2-.2-.5-.4-.8-.6z" fill="#6abe05"/><path d="M1335 360.2c.2.3.5.6.7.9v8.1h-.6v-.8zm-10.8 5h7.5v.6h-7.4v-.1z" fill="#6abe05"/><path d="M1331.4 358.1l.4.1c.1 0 .2 0 .2.1v7.2h-.6zm-8.1 3.4h4.7v.7h-4.6z" fill="#6abe05"/><path d="M1327.7 357.2l.6.2v4.4h-.6z" fill="#6abe05"/><path d="M1322.3 356.2c.1-.1.3-.1.4-.2l15.9 15.9c0 .1 0 .2-.1.3-.1 0-.1.1-.2.1l-16-16c-.1.1-.1 0 0-.1z" fill="#6abe05"/><path d="M1272.6 120.4c-.1 0-.1-.1 0 0-.1-.1-.2-.2-.3-.2h-.3l-4.7 1.1-.7.2-3 .7-.5.1h-.1c-1.2.3-2.2 1-3 1.8-.2.3-.5.6-.7.9-.4.6-.6 1.2-.8 1.9l-2.1 8.9v.3c0 .1.1.2.1.2.1.1.2.1.3.1h.2l8.9-2.1c.6-.1 1.2-.4 1.7-.7.3-.2.6-.4.9-.7.9-.8 1.6-1.8 1.9-3 0-.1 0-.2.1-.2l.1-.4.7-3 .2-.7 1.1-4.8v-.2c.1 0 0-.1 0-.2z" fill="#206b50"/><path d="M1259.9 124.2v9.2h-.6V125c.1-.2.3-.5.6-.8z" fill="#206b50"/><path d="M1268.6 133.1c-.3.2-.6.5-.9.7h-8.1v-.6h.8zm-5-10.9v7.5h-.6v-7.4h.1z" fill="#206b50"/><path d="M1270.6 129.4l-.1.4c0 .1 0 .2-.1.2h-7.2v-.6zm-3.3-8v4.7h-.7v-4.6z" fill="#206b50"/><path d="M1271.5 125.7l-.1.7h-4.5v-.7z" fill="#206b50"/><path d="M1272.5 120.4s.1 0 0 0c.1.1.1.3.2.4l-15.9 15.9c-.1 0-.2 0-.3-.1 0-.1-.1-.1-.1-.2l16-16c0-.1 0-.1.1 0 0-.1 0 0 0 0z" fill="#206b50"/></svg>