<svg viewBox="0 0 1440 416" xmlns="http://www.w3.org/2000/svg"><path d="M60.655 241.659l199.43-199.402 7.566 7.567-199.43 199.402z" fill="#dfa47c"/><path d="M219.7 108.9l-18.6-18.6c-5.5-5.5-5.5-14.5 0-20.1l18.6-18.6c5.5-5.5 14.5-5.5 20.1 0l18.6 18.6c5.5 5.5 5.5 14.5 0 20.1l-18.6 18.6c-5.6 5.5-14.5 5.5-20.1 0z" fill="#a87148"/><path d="M131.5 162.4v-22.6c0-8.9 7.2-16.1 16.1-16.1h22.6c8.9 0 16.1 7.2 16.1 16.1v22.6c0 8.9-7.2 16.1-16.1 16.1h-22.6c-8.9 0-16.1-7.2-16.1-16.1z" fill="#f46363"/><path d="M152.7 99.7c16-16 42-16 58 0s16 42 0 58" fill="#6abe05"/><path d="M130.6 213c-2.7-2.7-7.2-2.7-9.9 0l-6 6c-2.7 2.7-7.2 2.7-9.9 0l-13.6-13.6c-2.7-2.7-2.7-7.2 0-9.9l6-6c2.7-2.7 2.7-7.2 0-9.9-3.3-3.3-2.5-8.9 1.6-11.1 12-6.5 27.4-4.7 37.6 5.4 10.2 10.2 12 25.6 5.5 37.6-2.4 4.1-8 4.9-11.3 1.5z" fill="#87543b"/><path d="M330.3 393.3c0 7.7-.6 15.3-1.9 22.7H62.2c-1.2-7.4-1.9-15-1.9-22.7 0-74.6 60.4-135 135-135s135 60.5 135 135z" fill="#f3c59a"/><path d="M315.5 393.3c0 8.3-8.6 15.3-13.2 22.7h-214c-4.6-7.4-13.2-14.4-13.2-22.7 0-10.2 13.1-18.6 15.7-28 2.6-9.8-4.5-23.6.4-32.1 5-8.7 20.6-9.4 27.6-16.4s7.7-22.6 16.4-27.6c8.5-4.9 22.3 2.2 32.1-.4 9.4-2.5 17.8-15.7 28-15.7s18.6 13.1 28 15.7c9.8 2.6 23.6-4.5 32.1.4 8.7 5 9.4 20.6 16.4 27.6s22.6 7.7 27.6 16.4c4.9 8.5-2.2 22.3.4 32.1 2.6 9.4 15.7 17.8 15.7 28z" fill="#6abe05"/><path d="M239.3 374.3l-19.6-19.6c-1.6-1.6-1.6-4.1 0-5.6l19.6-19.6c1.6-1.6 4.1-1.6 5.6 0l19.6 19.6c1.6 1.6 1.6 4.1 0 5.6l-19.6 19.6c-1.5 1.5-4 1.5-5.6 0z" fill="#fff"/><circle cx="198.7" cy="322.3" fill="#206b50" r="15.6"/><path d="M212.7 415.5v.5h-97.8v-.5c0-27 21.9-48.9 48.9-48.9 26.9 0 48.9 21.9 48.9 48.9z" fill="#f46363"/><path d="M200.9 415.5v.5h-74.2v-.5c0-20.5 16.6-37.1 37.1-37.1 20.4 0 37.1 16.6 37.1 37.1z" fill="#f99999"/><g fill="#6abe05"><path d="M308.4 197.8c0-.1 0-.1 0 0-.1-.1-.2-.2-.3-.2h-.3l-4.7 1.1-.7.2-3 .7-.5.1h-.1c-1.2.3-2.2 1-3 1.8-.2.3-.5.6-.7.9-.4.6-.6 1.2-.8 1.9l-2.1 8.9v.3c0 .1.1.2.1.2.1.1.2.1.3.1h.2l8.9-2.1c.6-.1 1.2-.4 1.7-.7.3-.2.6-.4.9-.7.9-.8 1.6-1.8 1.9-3 0-.1 0-.2.1-.2l.1-.4.7-3 .2-.7 1.1-4.8v-.2c.1 0 .1-.1 0-.2z"/><path d="M295.7 201.6v9.2h-.6v-8.4c.2-.3.4-.5.6-.8z"/><path d="M304.4 210.5c-.3.2-.6.5-.9.7h-8.1v-.6h.8zm-5-10.9v7.5h-.6v-7.4h.1z"/><path d="M306.5 206.8l-.1.4c0 .1 0 .2-.1.2h-7.2v-.6zm-3.4-8.1v4.7h-.6v-4.5z"/><path d="M307.4 203.1l-.2.7h-4.4v-.7z"/><path d="M308.4 197.7s0 .1 0 0c.1.1.1.3.2.4L292.7 214c-.1 0-.2 0-.3-.1 0-.1-.1-.1-.1-.2l16-16c-.1-.1 0 0 .1 0zM70.2 68.2c-.1.1-.2.2-.2.3v.3l1.1 4.7.2.7.7 3 .1.5v.1c.3 1.2 1 2.2 1.8 3 .3.2.6.5.9.7.6.4 1.2.6 1.9.8l8.9 2.1h.3c.1 0 .2-.1.2-.1.1-.1.1-.2.1-.3v-.2l-2.1-8.9c-.1-.6-.4-1.2-.7-1.7-.2-.3-.4-.6-.7-.9-.8-.9-1.8-1.6-3-1.9-.1 0-.2 0-.2-.1l-.4-.1-3-.7-.7-.2-4.8-1.1h-.2c0-.1-.1-.1-.2 0z"/><path d="M74 80.9h9.2v.6h-8.4c-.2-.2-.5-.4-.8-.6z"/><path d="M82.9 72.2c.2.3.5.6.7.9v8.1H83v-.8zm-10.9 5h7.5v.6h-7.4v-.1z"/><path d="M79.2 70.1l.4.1c.1 0 .2 0 .2.1v7.2h-.6zm-8 3.4h4.7v.7h-4.6z"/><path d="M75.5 69.2l.7.2v4.4h-.7z"/><path d="M70.2 68.2c.1-.1.3-.1.4-.2l15.9 15.9c0 .1 0 .2-.1.3-.1 0-.1.1-.2.1l-16-16c-.1.1-.1 0 0-.1-.1 0 0 0 0 0z"/></g></svg>