<svg viewBox="0 0 469.62 414.8" xmlns="http://www.w3.org/2000/svg"><path d="M469.62 0H269L115.03 110.08 332.74 414.6h136.88z" fill="#ffe3ac"/><g fill="#e8503d"><path d="M396.116 30.93l36.013-25.745 36.447 50.983-36.014 25.745zM371.31 180.125l36.015-25.746 36.446 50.983-36.014 25.745zM309.121 93.13l36.014-25.745 36.446 50.983-36.014 25.745zM411.06 414.6h50.86l-17.21-24.06zM164.501 74.726l36.014-25.745 31.875 44.588-36.014 25.746zm119.812 167.586l36.014-25.745 36.446 50.982-36.014 25.745zm62.195 87.002l36.014-25.745 36.446 50.982-36.014 25.746zM222.121 155.322l36.014-25.745 36.446 50.982-36.014 25.745zm49.153 173.335l49.477-35.37 25.746 36.014-49.478 35.37z"/><path d="M356.775 267.564l50.983-36.446 25.745 36.014-50.982 36.446z"/></g><path d="M407.76 231.106l36.015-25.745 25.745 36.013-36.014 25.746zm-87 62.191l36.015-25.745 25.745 36.014-36.014 25.745z" fill="#ab1300"/><path d="M294.584 180.564l50.982-36.446 25.746 36.014-50.983 36.446zm-85.488 61.116l49.478-35.371 25.745 36.014-49.477 35.37zm172.482-123.316l50.983-36.446 25.745 36.014-50.982 36.446z" fill="#e8503d"/><path d="M345.57 144.116l36.013-25.746 25.746 36.014-36.014 25.746zm-87 62.181l36.013-25.745 25.746 36.014-36.014 25.745z" fill="#ab1300"/><path d="M232.397 93.556l50.982-36.446 25.745 36.014-50.982 36.446zm-85.492 61.124l49.477-35.371 25.746 36.014-49.478 35.37z" fill="#e8503d"/><path d="M283.37 57.122l36.014-25.746 25.745 36.014-36.014 25.746zm-86.99 62.191l36.014-25.745 25.745 36.014-36.014 25.745z" fill="#ab1300"/><path d="M283.37 57.11l36.01-25.75L296.96 0H269l-17.51 12.52zM439.36 0h-10.94l3.7 5.18z" fill="#e8503d"/><path d="M432.12 5.18L428.42 0H374l22.11 30.92z" fill="#ab1300"/><path d="M345.12 67.37l50.99-36.45L374 0h-10.75l-43.87 31.36zM334.95 414.6h72.55l-24.54-34.32z" fill="#e8503d"/><path d="M418.97 354.53l-36.01 25.75 24.54 34.32h3.56l33.65-24.06z" fill="#ab1300"/><path d="M469.62 0h-76.24a217.76 217.76 0 00-111.2 80.66C211.6 178.7 233.86 315.4 331.9 386a218.52 218.52 0 0054.5 28.62h83.22z"/><path d="M469.62 0h-76.24a217.76 217.76 0 00-111.2 80.66C211.6 178.7 233.86 315.4 331.9 386a218.52 218.52 0 0054.5 28.62h83.22z" fill="#5a0a00"/><path d="M383 380.28l-28.17 20.14a216.7 216.7 0 0031.63 14.18h21.04z"/><path d="M411.06 414.6h50.86l-17.21-24.06z" fill="#5a0a00"/><path d="M275.1 325.89a216.88 216.88 0 0027.46 34.78l43.95-31.38-25.74-36zm19.48-145.34l-36.45-51-3.42 2.45a217.38 217.38 0 00-12.36 51.6l16.22 22.68zm-36.01 25.74l-17.37 12.42a220.81 220.81 0 007.88 48.78l35.24-25.19z"/><path d="M469.62 0h-89.3a217.65 217.65 0 00-89.25 72.38c-70.58 98-48.32 234.74 49.73 305.32a217.89 217.89 0 0084.33 36.9h44.49z" fill="#870f00"/><path d="M469.62 0H419c-88.7 22.74-154.28 103.24-154.28 199.05 0 113.29 91.68 205.16 204.9 205.47z" fill="#c14f29"/><path d="M469.62 17.64l-4.18-.92a67.49 67.49 0 00-49.13 8l-12.57 7.53a67.65 67.65 0 01-14.31 6.44l-13.88 4.39a67.43 67.43 0 00-38.65 31.59l-7 12.68a67.29 67.29 0 01-9.25 12.85l-9.79 10.69a67.4 67.4 0 00-17.7 46.68l.24 14.55a67.23 67.23 0 01-1.56 15.62l-3.15 14.31a67.41 67.41 0 008 49.12l7.53 12.57a68.24 68.24 0 016.44 14.32l4.34 13.88a67.4 67.4 0 0031.6 38.64l12.68 7a67.34 67.34 0 0112.85 9.26l10.69 9.79a67.45 67.45 0 0046.68 17.7l14.55-.25a67.24 67.24 0 0115.62 1.57l9.94 2.18z" fill="#ffc043"/><path d="M469.62 88.26a60.16 60.16 0 00-14.18 1.8 27.55 27.55 0 00-20.83 26.72 11.7 11.7 0 0011.7 11.7h23.31z" fill="#f6f0ea"/><path d="M469.62 108.06a44.5 44.5 0 00-12.05 1.75 13.65 13.65 0 00-9.85 13.1 5.57 5.57 0 005.58 5.57h16.32z" fill="#5c3c2e"/><path d="M469.62 111.54a23.1 23.1 0 00-10.17 2.56l-.14.07a2.62 2.62 0 00-1.41 2.12l-2.1 25.64h13.82z" fill="#f6f0ea"/><path d="M469.62 111.54a23.1 23.1 0 00-10.17 2.56l-.14.07a2.62 2.62 0 00-1.41 2.12l-.24 2.88a2.89 2.89 0 01.84-.67l.16-.08a24.94 24.94 0 0111-2.75z" fill="#d2bbb0"/><path d="M370.6 237.59a56.41 56.41 0 0013.42 24 25.94 25.94 0 0031.51 4.85 11 11 0 004.24-15l-21.79-39a11 11 0 00-15-4.24 25.93 25.93 0 00-12.38 29.39z" fill="#f6f0ea"/><path d="M414.55 252.86a12.85 12.85 0 01-15.29-2.08 42.26 42.26 0 01-11.45-20.5 12.82 12.82 0 016.24-14.1 5.24 5.24 0 017.13 2l15.39 27.53a5.26 5.26 0 01-2.02 7.15z" fill="#5c3c2e"/><path d="M392.19 229.7v.15a21.82 21.82 0 009.73 17.42l.13.08a2.47 2.47 0 002.38.19l22-10-13.09-23.42-20.11 13.5a2.46 2.46 0 00-1.04 2.08z" fill="#f6f0ea"/><path d="M406 246l-.14-.09a23.4 23.4 0 01-10.46-18.72v-.16a2.76 2.76 0 01.16-1l-2.26 1.52a2.46 2.46 0 00-1.08 2.13v.15a21.82 21.82 0 009.73 17.42l.13.08a2.47 2.47 0 002.38.19l2.48-1.13a2.63 2.63 0 01-.94-.39z" fill="#d2bbb0"/><path d="M395 289l-6.5 16.82a27 27 0 00-1.18 15.68 27.1 27.1 0 0011.48 16.72 34.41 34.41 0 0112.2 14.22l5.39 11.67 6.42-33.44a34.77 34.77 0 00-20.49-38.54z" fill="#156a41"/><path d="M393.27 282.62c.38.55.71 1.06 1.05 1.59l1 1.57c.64 1.06 1.26 2.12 1.86 3.2q1.81 3.21 3.43 6.52a134.33 134.33 0 015.7 13.5q1.23 3.47 2.27 7c.67 2.34 1.31 4.7 1.83 7.08a103.5 103.5 0 012.2 14.4 103 103 0 00-3.17-14.15c-.68-2.32-1.47-4.6-2.29-6.86s-1.74-4.49-2.7-6.7a130 130 0 00-6.52-12.84c-1.2-2.07-2.45-4.11-3.77-6.11-.65-1-1.33-2-2-2.95-.34-.49-.69-1-1-1.45s-.72-1-1.05-1.38z" fill="#0f462d"/><path d="M317.64 138.53l-2.11 3.29a41 41 0 002.85 48.23l11.33 13.76-1-14.36a32.86 32.86 0 013.37-17 23.11 23.11 0 00-7.84-29.45z" fill="#156a41"/><path d="M319.78 137.29c-.07.12-.15.28-.22.43s-.15.31-.22.47c-.15.31-.29.62-.43.94-.29.63-.55 1.29-.82 1.93-.51 1.31-1 2.63-1.43 4a71.07 71.07 0 00-2.2 8.19c-.08.34-.16.69-.22 1l-.19 1c-.12.7-.26 1.4-.36 2.1-.18 1.41-.4 2.82-.5 4.24a71.88 71.88 0 00-.28 8.56 72.29 72.29 0 01-.52-8.59c0-1.45.05-2.89.11-4.33 0-.72.11-1.44.16-2.16l.09-1.08c0-.36.08-.72.12-1.08a76.14 76.14 0 011.47-8.58c.32-1.42.7-2.83 1.1-4.23.22-.7.42-1.41.66-2.1l.36-1.05.2-.53.21-.55z" fill="#0f462d"/><path d="M469.62 175.39l-4.7-4.92a34.74 34.74 0 00-23-10.71 34.71 34.71 0 00-19.92 4.82l-13.61 8.1 13.3 7.38a55.07 55.07 0 0035.45 6.23l12.48-2z" fill="#156a41"/><path d="M405.32 171.34c2.11-.17 4.15-.26 6.22-.34l3.09-.07h3.09c4.12 0 8.23.15 12.33.42 2.05.12 4.1.33 6.14.5l3.06.35 1.53.18 1.53.21c1 .15 2 .28 3 .44l3 .52 1.51.26 1.51.31 3 .62-3-.42-1.52-.21-1.53-.17-3-.32-3.06-.23-1.52-.11-1.53-.08-3.06-.15c-2 0-4.07-.11-6.11-.09q-6.12 0-12.2.37c-1 .06-2 .15-3.05.22l-3 .27c-2 .2-4.05.43-6 .71z" fill="#0f462d"/><path d="M469.62 204.3a32.64 32.64 0 00-21.45 33.7l1.58 17.45 4.45-11.86a8.84 8.84 0 0110-5.57l.37.08a25.52 25.52 0 005.07.47z" fill="#156a41"/><path d="M469.62 214.23a49.31 49.31 0 00-7.46 5.87 32.31 32.31 0 00-4.32 5.1 22.91 22.91 0 00-2.88 6 22.61 22.61 0 013.21-5.74 31.33 31.33 0 014.53-4.75 47 47 0 016.92-4.86z" fill="#0f462d"/><path d="M445.51 69.93l-14.4-13.22a36.31 36.31 0 00-31.8-8.84L382 51.4l16.64 12.22a36.32 36.32 0 0022.56 7z" fill="#156a41"/><path d="M448.02 71.94l-38.28-14.56 39.16 12z" fill="#0f462d"/><path d="M340.73 242.69c-4.74 9.48-14.92 8.85-23.66 10.74a25.1 25.1 0 1049.71 4.92A24.89 24.89 0 00365 249a17.23 17.23 0 00-8.6-9.25c-6-2.75-13.05-2.88-15.67 2.94z" fill="#ab1300"/><path d="M340.73 242.69c-4.74 9.48-14.92 8.85-23.66 10.74a25.32 25.32 0 00-.47 4.39c5.67.25 17.28 0 23.3-4.87s5.42-11.45 14.44-14c-5.46-1.95-11.28-1.43-13.61 3.74z" fill="#870f00"/><path d="M331.66 265.3l-3.12 5.41a.8.8 0 00.69 1.2h6.24a.81.81 0 00.7-1.2L333 265.3a.8.8 0 00-1.34 0zm21.34 4.05l-5-1.14a.61.61 0 00-.71.77l1.5 4.88a.6.6 0 001 .23l3.47-3.73a.61.61 0 00-.26-1.01zm3.78-17.82l-5 .68a.61.61 0 00-.4 1l3.12 4a.61.61 0 001-.14l1.93-4.72a.61.61 0 00-.65-.82z" fill="#e11900"/><path d="M376.42 104.84h-.14a23.41 23.41 0 00-25.07 18 27.51 27.51 0 1052.92-2.45 1.75 1.75 0 00-1.62-1.19c-9.18-.15-16.85-13.35-26.09-14.36z" fill="#ab1300"/><path d="M404.13 120.39a1.77 1.77 0 00-1.62-1.19c-9.18-.15-16.85-13.35-26.09-14.36h-.14a22.67 22.67 0 00-6.85.34 18.46 18.46 0 018.59 2.21c5.25 3 6 13.12 15.19 15.15 5.37 1.2 8.91-.51 10.92-2.13z" fill="#870f00"/><path d="M374 141.7l-6.85-1.57a.84.84 0 00-1 1.06l2.07 6.72a.83.83 0 001.41.32l4.79-5.15a.83.83 0 00-.42-1.38zm-2.59-25l-8 5a1.11 1.11 0 00.07 1.93l8.33 4.41a1.12 1.12 0 001.64-1l-.35-9.41a1.12 1.12 0 00-1.69-.93zm22.53 20.39l-6.13-3.09a.82.82 0 00-1.18.78l.41 6.85a.82.82 0 001.26.63l5.7-3.76a.82.82 0 00-.06-1.41z" fill="#e11900"/><path d="M469.62 268.91a12.18 12.18 0 00-1.7-.14c-6.82 0-10.84 5.61-16.85 7.62a7.23 7.23 0 01-3 .52 25.09 25.09 0 0021.55 37.19z" fill="#ab1300"/><path d="M461.59 288.41l-6.21-1.41a.76.76 0 00-.89 1l1.87 6.09a.76.76 0 001.28.29l4.34-4.66a.76.76 0 00-.39-1.31z" fill="#e11900"/><path d="M469.62 268.91a12.18 12.18 0 00-1.7-.14c-6.82 0-10.84 5.61-16.85 7.62a7.23 7.23 0 01-3 .52s3.21 5.06 10.44 3.83c5.19-.89 6.92-4.35 11.11-5.56z" fill="#870f00"/><circle cx="354.53" cy="197.39" fill="#f6f0ea" r="6.89"/><circle cx="379.59" cy="177.28" fill="#f6f0ea" r="3.94"/><circle cx="381.56" cy="80.35" fill="#f6f0ea" r="5.91"/><circle cx="413.49" cy="100.3" fill="#f6f0ea" r="3.75"/><circle cx="300.66" cy="230.65" fill="#f6f0ea" r="4.6"/><circle cx="361.18" cy="312.33" fill="#f6f0ea" r="5.6"/><circle cx="429.49" cy="280.26" fill="#f6f0ea" r="3.02"/><circle cx="451.43" cy="343.94" fill="#f6f0ea" r="6.48"/><circle cx="433.58" cy="204.2" fill="#f6f0ea" r="2.02"/><circle cx="463.96" cy="43.3" fill="#f6f0ea" r="4.19"/><path d="M95.21 414.8h101.9a79.62 79.62 0 10-101.9 0z" fill="#156a41"/><circle cx="166.12" cy="333.66" fill="#c14f29" r="79.62"/><circle cx="166.12" cy="333.66" fill="#5a0a00" r="72.75"/><circle cx="166.12" cy="333.66" r="43.64"/><path d="M153.72 363.86l-.9-.91a18.7 18.7 0 00-12.82-5.47 6.74 6.74 0 00-6.88 6.87 18.7 18.7 0 005.48 12.87l.9.9a18.67 18.67 0 0012.87 5.48 6.75 6.75 0 006.88-6.87 18.74 18.74 0 00-5.53-12.87zM177 375.48l.91.9a18.74 18.74 0 0012.87 5.48 6.74 6.74 0 006.87-6.88 18.69 18.69 0 00-5.47-12.87l-.91-.9a18.7 18.7 0 00-12.87-5.48 6.75 6.75 0 00-6.87 6.88 18.72 18.72 0 005.47 12.87zm-55.15-41.07l-.91.9a18.69 18.69 0 00-5.47 12.87 6.75 6.75 0 006.87 6.88 18.74 18.74 0 0012.87-5.48l.91-.9a18.7 18.7 0 005.47-12.87 6.74 6.74 0 00-6.87-6.88 18.7 18.7 0 00-12.87 5.48z"/><path d="M162.47 293.05l-.91-.9a18.7 18.7 0 00-12.87-5.48 6.75 6.75 0 00-6.87 6.88 18.67 18.67 0 005.48 12.87l.9.9a18.74 18.74 0 0012.87 5.48 6.74 6.74 0 006.87-6.88 18.7 18.7 0 00-5.47-12.87zM124 330.59l-.9.91a18.7 18.7 0 00-5.48 12.87 6.75 6.75 0 006.88 6.87 18.7 18.7 0 0012.87-5.47l.9-.91a18.74 18.74 0 005.51-12.86 6.74 6.74 0 00-6.88-6.87 18.69 18.69 0 00-12.9 5.46zm85.56-16.13v-1.28a18.7 18.7 0 00-5.23-13 6.74 6.74 0 00-9.72 0 18.7 18.7 0 00-5.23 13v1.28a18.71 18.71 0 005.23 13 6.76 6.76 0 009.72 0 18.71 18.71 0 005.23-13zm-20.81-18.66v-1.28a18.66 18.66 0 00-5.23-13 6.74 6.74 0 00-9.72 0 18.71 18.71 0 00-5.23 13v1.28a18.71 18.71 0 005.23 13 6.74 6.74 0 009.72 0 18.66 18.66 0 005.23-13zm-45.81 52.81h-1.28a18.74 18.74 0 00-13 5.23 6.74 6.74 0 000 9.72 18.7 18.7 0 0013 5.23h1.28a18.66 18.66 0 0013-5.23 6.74 6.74 0 000-9.72 18.71 18.71 0 00-13-5.23z" fill="#066336"/><path d="M203.38 331.42h-1.28a18.75 18.75 0 00-13 5.23 6.76 6.76 0 000 9.72 18.71 18.71 0 0013 5.23h1.28a18.7 18.7 0 0013-5.23 6.74 6.74 0 000-9.72 18.74 18.74 0 00-13-5.23z" fill="#0f462d"/><path d="M170.85 381.13l.91-.9a18.69 18.69 0 005.47-12.87 6.73 6.73 0 00-6.87-6.87 18.69 18.69 0 00-12.87 5.51l-.9.91a18.65 18.65 0 00-5.48 12.87 6.75 6.75 0 006.87 6.87 18.65 18.65 0 0012.87-5.52zm8.88-28.67l.9-.91a18.65 18.65 0 005.48-12.87 6.73 6.73 0 00-6.87-6.87 18.69 18.69 0 00-12.87 5.47l-.91.91a18.69 18.69 0 00-5.46 12.87 6.73 6.73 0 006.87 6.87 18.69 18.69 0 0012.86-5.47zm-17.28-37.77h-1.27a18.71 18.71 0 00-13 5.23 6.74 6.74 0 000 9.72 18.75 18.75 0 0013 5.23h1.27a18.75 18.75 0 0013-5.23 6.74 6.74 0 000-9.72 18.71 18.71 0 00-13-5.23zm-29.14-12.5H132a18.74 18.74 0 00-13 5.22 6.75 6.75 0 000 9.73 18.74 18.74 0 0013 5.22h1.28a18.74 18.74 0 0013-5.22 6.77 6.77 0 000-9.73 18.74 18.74 0 00-12.97-5.22zM185 371.88l.9.91a18.7 18.7 0 0012.87 5.47 6.74 6.74 0 006.88-6.87 18.7 18.7 0 00-5.48-12.87l-.9-.9a18.67 18.67 0 00-12.87-5.48 6.75 6.75 0 00-6.9 6.86 18.74 18.74 0 005.5 12.88z" fill="#066336"/><circle cx="151.59" cy="341.99" fill="#066336" r="6.92"/><circle cx="184.58" cy="323.91" fill="#066336" r="5.29"/><path d="M202.59 316l-2.89-.78a3.24 3.24 0 01-2.28-2.28l-.78-2.89a.57.57 0 01.72-.7l2.89.87a3.26 3.26 0 012.17 2.16l.87 2.89a.58.58 0 01-.7.73zm-58.45 34.53l.75-2.8a3.73 3.73 0 012.62-2.62l2.8-.75a.48.48 0 01.58.59l-.86 2.83a3.72 3.72 0 01-2.47 2.48l-2.83.85a.47.47 0 01-.59-.58zm43.41 18.67l-2.55 1.45a3.7 3.7 0 01-3.7 0l-2.52-1.45a.47.47 0 010-.82l2.61-1.4a3.68 3.68 0 013.5 0l2.6 1.4a.47.47 0 01.06.82zm-30.01-49.18h4.88v2.04h-4.88zm-30.39-7.74h2.76v4.55h-2.76zm-2.921 36.037l1.852-1.852 1.853 1.852-1.853 1.853zm42.651-53.907h2.91v1.79h-2.91z" fill="#06c167"/><path d="M164.171 365.976l1.591-1.59 3.706 3.705-1.591 1.59z" fill="#bc8b2c"/><path d="M203.793 340.623l-3.373 3.373-1.584-1.584 3.373-3.373z" fill="#06c167"/><path d="M149.95 290.03h1.69v1.69h-1.69z" fill="#bc8b2c"/><path d="M146.29 317.14a6.77 6.77 0 000-9.73 18.77 18.77 0 00-7.51-4.4 18.69 18.69 0 00-4 11.25 6.74 6.74 0 005.53 6.76 18.83 18.83 0 006-3.88zm12.09-25.2a18.69 18.69 0 00-12.87 5.47l-.91.91a18.37 18.37 0 00-1.49 1.69 18.69 18.69 0 004.19 6.41l.9.9a18.71 18.71 0 0010.64 5.3l.9-.91a18.65 18.65 0 005.48-12.87 6.71 6.71 0 00-1.1-3.83c-.29-.38-.6-.75-.92-1.11a6.7 6.7 0 00-4.82-1.96z" fill="#0f462d"/><path d="M143.26 298.34l-.9.9a18.74 18.74 0 00-5.48 12.87 6.76 6.76 0 006.88 6.88 18.76 18.76 0 0012.87-5.48l.9-.9a18.73 18.73 0 005.47-12.87 6.76 6.76 0 00-6.88-6.88 18.71 18.71 0 00-12.86 5.48z" fill="#997328"/><circle cx="141.55" cy="314.47" r="1.55"/><path d="M124 330.59l-.9.91a18.63 18.63 0 00-5.08 9.38 18.7 18.7 0 0012.64 4.92H132a18.8 18.8 0 006.58-1.2 18.72 18.72 0 005.2-12.6 6.77 6.77 0 00-.44-2.51 18.68 18.68 0 00-10.48-3.84 18.75 18.75 0 00-8.86 4.94z" fill="#0f462d"/><path d="M136.55 321h-1.28a18.7 18.7 0 00-13 5.23 6.74 6.74 0 000 9.72 18.74 18.74 0 0013 5.23h1.28a18.75 18.75 0 0013-5.23 6.76 6.76 0 000-9.72 18.71 18.71 0 00-13-5.23z" fill="#bc8b2c"/><circle cx="123.94" cy="331.23" r="1.55"/><path d="M199.43 360.61a19.33 19.33 0 00-.33-3.14 18.7 18.7 0 00-12.72-5.33 6.75 6.75 0 00-6.88 6.86 19.21 19.21 0 00.33 3.14 18.69 18.69 0 0012.73 5.34 6.75 6.75 0 006.87-6.88zm-35.69-45.87a6.74 6.74 0 006.8 5.72 18.56 18.56 0 004.71-.7 18.65 18.65 0 00-11.51-5.02z" fill="#0f462d"/><path d="M186.63 312.12l.9-.9a18.7 18.7 0 005.47-12.87 6.76 6.76 0 00-6.88-6.88 18.76 18.76 0 00-12.86 5.53l-.9.9a18.76 18.76 0 00-5.48 12.87 6.76 6.76 0 006.88 6.88 18.7 18.7 0 0012.87-5.53z" fill="#bc8b2c"/><circle cx="188.34" cy="295.99" r="1.55"/><path d="M142.94 368.79a18.68 18.68 0 0011.61-4c-.26-.3-.54-.6-.83-.89l-.9-.91a18.7 18.7 0 00-12.82-5.51 6.74 6.74 0 00-6.88 6.87 18.28 18.28 0 00.22 2.46 18.68 18.68 0 008.37 2zm16.26 7.94a18.82 18.82 0 00-2.87-9.6 18.72 18.72 0 00-5.22 12.61 6.75 6.75 0 001.12 3.86h.09a6.75 6.75 0 006.88-6.87z" fill="#0f462d"/><path d="M157.58 360l-.9-.9a18.74 18.74 0 00-12.87-5.48 6.76 6.76 0 00-6.88 6.88 18.76 18.76 0 005.48 12.87l.91.9a18.69 18.69 0 0012.86 5.48 6.76 6.76 0 006.88-6.88 18.71 18.71 0 00-5.48-12.87z" fill="#bc8b2c"/><circle cx="141.45" cy="358.28" r="1.55"/><path d="M177.49 324.73a18.74 18.74 0 00-4.5 3.2 6.72 6.72 0 00-2.07 4.91 18.87 18.87 0 004.51-3.2 6.7 6.7 0 002.06-4.91z" fill="#0f462d"/><path d="M189.12 336.65a6.78 6.78 0 00-1.93 6.23h.05a18.75 18.75 0 0013-5.23 6.78 6.78 0 001.93-6.23h-.05a18.75 18.75 0 00-13 5.23z"/><path d="M185.55 342.87a19 19 0 00.56-4.19 6.73 6.73 0 00-6.87-6.87 18.64 18.64 0 00-8.22 2.08 6.67 6.67 0 002 3.76 18.74 18.74 0 0012.53 5.22z" fill="#0f462d"/><path d="M190.51 316.83h-1.28a18.66 18.66 0 00-13 5.23 6.74 6.74 0 000 9.72 18.71 18.71 0 0013 5.23h1.28a18.71 18.71 0 0013-5.23 6.74 6.74 0 000-9.72 18.66 18.66 0 00-13-5.23z" fill="#997328"/><circle cx="202.29" cy="326.92" r="1.55"/><path d="M173 341.1v-1.28a18.66 18.66 0 00-5.23-13 6.74 6.74 0 00-9.72 0 18.71 18.71 0 00-5.23 13v1.28a18.71 18.71 0 005.23 13 6.74 6.74 0 009.72 0 18.66 18.66 0 005.23-13z" fill="#997328"/><circle cx="162.89" cy="352.87" r="1.55"/><path d="M181.79 357.81l.91.91a18.69 18.69 0 0012.87 5.47 6.73 6.73 0 006.87-6.87 18.69 18.69 0 00-5.44-12.87l-.91-.91a18.69 18.69 0 00-12.87-5.47 6.73 6.73 0 00-6.87 6.87 18.69 18.69 0 005.44 12.87z" fill="#bc8b2c"/><circle cx="197.93" cy="359.52" r="1.55"/><circle cx="68.46" cy="68.27" fill="#156a41" r="48.39"/><circle cx="78.38" cy="58.35" fill="#05a357" r="48.39"/><circle cx="78.38" cy="58.35" fill="#ffcf70" r="37.34"/><path d="M104.51 44.52l-.51 2.26 2 1 7.15-3.09a37.66 37.66 0 00-1.92-4.12z" fill="#05a357"/><path d="M107.37 64.13a29.56 29.56 0 00-47.49-28.84 31.38 31.38 0 0132.69 49 29.51 29.51 0 0014.8-20.16z" fill="#0f462d"/><path d="M73.38 35a31.28 31.28 0 00-13.5.26 29.56 29.56 0 0032.69 49A31.38 31.38 0 0073.38 35z" fill="#066336"/><path d="M156.38 6.75a5.1 5.1 0 00-4.55-2.26A9 9 0 00147 6.27l-52.93 39.5-6.44-1.29a24.08 24.08 0 00-21.36 6.2l3.19 4.78a7.53 7.53 0 011.13 5.67A7.55 7.55 0 0076.51 70l2.6.52a7.45 7.45 0 013.62 1.84 24.06 24.06 0 0012.42-16.61l1.29-6.44 56.77-33.68a9 9 0 003.51-3.81 5.08 5.08 0 00-.34-5.07z" fill="#fffaf0"/><path d="M76.51 70a7.55 7.55 0 01-5.92-8.88 7.53 7.53 0 00-1.13-5.67l-3.19-4.78a24 24 0 00-7 12.73 9.59 9.59 0 007.52 11.27 24 24 0 0016-2.31 7.45 7.45 0 00-3.62-1.84zM64.035 39.454l4.55.909-.33 1.657-4.55-.908zm-7.067 30.124l2.575 3.86-1.406.938-2.575-3.86z" fill="#05a357"/><path d="M56.737 69.226l.938 1.406-1.406.938-.938-1.406z" fill="#0f462d"/><path d="M56.217 48.896l2.246.448-.581 2.913-2.246-.449zm32.809 30.63l2.246.449-.582 2.912-2.245-.448z" fill="#bc8b2c"/><path d="M89.372 77.779l2.246.448-.582 2.913-2.246-.449z" fill="#0f462d"/><path d="M93.98 66.765l1.222 1.81-1.81 1.22-1.22-1.81z" fill="#bc8b2c"/><path d="M62.204 46.61l1.76-1.186 1.187 1.76-1.76 1.187zm-10.288 7.715l2.471.494-.186.931-2.47-.493zm8.666 22.61l2.471.494-.186.931-2.471-.493zm32.038-3.697l3.451.689-.258 1.294-3.452-.689z" fill="#0f462d"/><path d="M56.586 41.828l2.619.523-.523 2.618-2.618-.522z" fill="#05a357"/><path d="M56.058 44.44l2.618.523-.162.814-2.619-.522zm11.98-4.186l1.657.33-.331 1.658-1.657-.331z" fill="#0f462d"/><path d="M73.476 37.36l1.864.372-.372 1.864-1.864-.372z" fill="#bc8b2c"/><path d="M59.418 63.613l3.344-2.23.638.956-3.344 2.23zM78.18 41.286l3.345-2.23.638.956-3.344 2.23zM53.157 58.989l1.305.26-.45 2.256-1.305-.26zM86.342 73.72l1.304.26-.45 2.256-1.305-.26z" fill="#0f462d"/><path d="M54.306 65.75l2.393.478-.22 1.099-2.392-.478z" fill="#bc8b2c"/><path d="M59.278 54.533l1.206.24-.24 1.207-1.207-.241zm13.961-11.132l1.206.241-.24 1.206-1.207-.24z" fill="#05a357"/><path d="M84.544 41.895l1.206.24-.24 1.207-1.207-.241z" fill="#bc8b2c"/><path d="M95.456 61.138l1.206.241-.24 1.206-1.207-.24z" fill="#05a357"/><path d="M67.398 56.796l1.108.221-.578 2.893-1.108-.221zM62.72 68.48l2.982.595-.358 1.794-2.982-.595z" fill="#0f462d"/><path d="M65.124 68.954l1.794.359-.358 1.794-1.795-.358z" fill="#ffc043"/><path d="M72.486 71.018l1.155 1.73-.79.527-1.155-1.73z" fill="#0f462d"/><path d="M68.34 64.35l.816 1.223-1.222.816-.816-1.223zm-3.073-10.064l-.227 1.138-1.138-.227.227-1.138z" fill="#ffc043"/><path d="M77.254 72.04l2.079.415-.14.696-2.078-.415zm3.569 12.92l1.764-1.176.394.59-1.764 1.177z" fill="#0f462d"/><path d="M67.77 75.895l1.412.282-.826 4.138-1.412-.282z" fill="#05a357"/><path d="M66.936 80.025l1.412.282-.282 1.412-1.412-.282z" fill="#bc8b2c"/><path d="M75.194 77.036l3.442.687-.325 1.628-3.442-.687z" fill="#0f462d"/><path d="M78.63 77.733l1.913.382-.325 1.628-1.912-.382zm-3.321 4.087l1.171 1.754-1.755 1.172-1.171-1.756zm9.005-2.117l1.834.366-.163.814-1.834-.366z" fill="#05a357"/><path d="M113.13 44.67l10.14-4.39a48 48 0 00-2.56-5.37l-9.5 5.64a37.66 37.66 0 011.92 4.12z" fill="#066336"/><path d="M268.08 398.54l1 1a21.28 21.28 0 0014.65 6.24 7.69 7.69 0 007.83-7.83 21.28 21.28 0 00-6.24-14.65l-1-1a21.28 21.28 0 00-14.65-6.24 7.69 7.69 0 00-7.83 7.83 21.28 21.28 0 006.24 14.65z" fill="#156a41"/><path d="M271.66 395l1 1a21.31 21.31 0 0014.66 6.23 7.68 7.68 0 007.83-7.83 21.3 21.3 0 00-6.24-14.65l-1-1a21.28 21.28 0 00-14.65-6.24 7.69 7.69 0 00-7.83 7.83 21.32 21.32 0 006.23 14.66z" fill="#bc8b2c"/><circle cx="290.02" cy="396.91" r="1.77"/><path d="M154.71 45.42l-.62-1.36a3.13 3.13 0 00-4.67-1.25l-1.22.86-1.48-.14A3.13 3.13 0 00143.3 47l.14 1.49-.87 1.21a3.13 3.13 0 001.26 4.67l1.35.62.62 1.36a3.14 3.14 0 004.68 1.25l1.21-.86 1.48.14a3.13 3.13 0 003.42-3.42l-.14-1.48.87-1.22a3.14 3.14 0 00-1.25-4.76zm16.54 186.45l-.88-.41a2 2 0 00-2.83 1.37l-.23.94-.79.55a2 2 0 00-.23 3.13l.7.67.09 1a2 2 0 002.59 1.77l.93-.27.88.41a2 2 0 002.83-1.37l.23-.94.79-.56a2 2 0 00.23-3.13l-.7-.66-.09-1a2 2 0 00-2.59-1.76z" fill="#fff"/><path d="M152.14 201.2l3.79-4.89a.77.77 0 00-.92-1.17l-5.62 2.6a36.54 36.54 0 01-13.7 3.34 24.57 24.57 0 00-23.43 22.83l-.45 6.56 6.49 1a24.58 24.58 0 0027.51-17.7 36.49 36.49 0 016.33-12.57z" fill="#0f462d"/><path d="M111.9 232l23.23-20.12L110.31 230a1.29 1.29 0 00-.25 1.84 1.28 1.28 0 001.84.16z" fill="#0f462d"/><path d="M6.81 377.42l-1 1A20 20 0 000 392.13a7.2 7.2 0 007.34 7.34 20 20 0 0013.75-5.84l1-1a20 20 0 005.85-13.74 7.2 7.2 0 00-7.34-7.34 20 20 0 00-13.79 5.87z" fill="#156a41"/><path d="M10.66 373.58l-1 1a20 20 0 00-5.85 13.75 7.2 7.2 0 007.34 7.34 20 20 0 0013.74-5.85l1-1a20 20 0 005.85-13.74 7.22 7.22 0 00-7.35-7.34 20 20 0 00-13.73 5.84z" fill="#997328"/><circle cx="8.83" cy="390.8" r="1.66"/><path d="M180.41 22.38l-1 1a20 20 0 00-5.85 13.74 7.22 7.22 0 007.35 7.35 20 20 0 0013.74-5.85l1-1a20 20 0 005.85-13.74 7.2 7.2 0 00-7.34-7.34 20 20 0 00-13.75 5.84z" fill="#156a41"/><path d="M184.25 18.53l-1 1a20 20 0 00-5.85 13.75 7.21 7.21 0 007.34 7.34 20 20 0 0013.75-5.85l1-1A20 20 0 00205.34 20a7.21 7.21 0 00-7.34-7.32 20 20 0 00-13.75 5.85z" fill="#997328"/><circle cx="182.43" cy="35.75" r="1.66"/><path d="M108.25 151.4l-4.25-1.15a5.62 5.62 0 01-4-4L98.88 142a.71.71 0 01.9-.87l4.29 1.29a5.66 5.66 0 013.76 3.76l1.29 4.29a.71.71 0 01-.87.93zM51.64 337.56l2.2 3.82a5.62 5.62 0 010 5.61l-2.2 3.82a.72.72 0 01-1.26 0l-2.11-4a5.63 5.63 0 010-5.32l2.11-3.94a.72.72 0 011.26.01z" fill="#06c167"/><circle cx="106.64" cy="254.18" fill="#ffe3ac" r="2.64"/><circle cx="261.65" cy="340.54" fill="#ffe3ac" r="3.07"/><circle cx="65.12" cy="401.23" fill="#ffe3ac" r="2.55"/><circle cx="15.86" cy="113.44" fill="#ffe3ac" r="1.91"/><circle cx="229.52" cy="12.09" fill="#ffe3ac" r="2.26"/><circle cx="10.14" cy="11.04" fill="#ffe3ac" r="2.96"/><path d="M66.15 130.63h12.23v3.85H66.15zm177.33 258.52h6.36v9.53h-6.36zm-90.1-192.65l3.8-4.89a.76.76 0 00-.93-1.16l-5.62 2.55a36.3 36.3 0 01-13.7 3.34 24.57 24.57 0 00-23.42 22.83l-.46 6.56 6.49 1a24.57 24.57 0 0027.52-17.7 36.64 36.64 0 016.32-12.53z" fill="#05a357"/><path d="M113.15 227.33l23.23-20.12-24.83 18.12a1.27 1.27 0 00-.24 1.83 1.28 1.28 0 001.84.17z" fill="#156a41"/></svg>