<svg viewBox="0 0 1440 416" xmlns="http://www.w3.org/2000/svg"><path d="M1196.633 333.377l9.546 9.546-9.546 9.546-9.546-9.546zM1369.73 63.375l9.547 9.546-9.546 9.546-9.546-9.546zM1278.7 135.1L1248 78.2c-3.6-6.7-13.3-6.7-16.9 0l-30.7 56.9c-3.4 6.4 1.2 14.1 8.4 14.1h61.3c7.4.1 12-7.7 8.6-14.1zm26.3 197.3l62 18.6c7.3 2.2 14.1-4.6 11.9-11.9l-18.6-61.9c-2.1-7-10.8-9.2-16-4l-43.4 43.4c-5 5-2.8 13.7 4.1 15.8zm21.2-190.2l-18.6 61.9c-2.2 7.3 4.6 14.1 11.9 11.9l61.9-18.6c7-2.1 9.2-10.8 4-16L1342 138c-5-4.9-13.8-2.7-15.8 4.2z" fill="#ffcb5c"/></svg>