<svg viewBox="0 0 1440 416" xmlns="http://www.w3.org/2000/svg"><path d="M327.5 210.5l-56.1 56-3.2 3.2-.1.1-123.7 123.7L0 249.1v-77.3L144.4 27.4l122.1 122.1 5 5z" fill="#ddeab7"/><path d="M78.8 257.1v.2c0 8.9-7.2 16-16.1 16h-4.1c-20.7 0-38.9-10.4-49.9-26.3-4-5.8-7-12.2-8.8-19.2v-30.7c.1-.2.1-.4.2-.7 1.6-6.4 4.3-12.8 8.1-19.3 1.3-2.2 3-4.4 4.9-6.5 9.7-10.6 26.1-18.4 39.5-18.4L78.7 249z" fill="#a87148"/><path d="M78.8 249.1c0 1.4-.2 2.7-.5 4-2.2 7.8-10.7 12.6-18.8 9.7-2.5-.9-5.3-1.1-7.9-.5-4.8 1.1-9.8 3-14.1 1.8-6-1.7-9.7-8.8-14.9-11.9-4-2.4-9.4-3.1-13.7-5.1-1.4-.7-2.7-1.5-3.8-2.7-3.2-3.5-3.7-8.9-5-13.8v-69.3c.8-.9 1.6-1.9 2.2-3 0 0 .1 0 .1.1.5.4 2.4 2.5 5.2 5.8 1.6 1.8 3.5 4 5.6 6.5 20.9 24.6 64.7 77.3 65.6 78.4z" fill="#85c844"/><path d="M78.8 257.1c0-1.4-.2-2.7-.6-4-.8-2.8-2.2-5.2-4.2-7.2-2.9-2.9-6.9-4.7-11.4-4.7h-4c-27.9 0-51.4-19-58.4-44.7-.1-.2-.1-.4-.2-.6v-30.4c.6-2.4 1.4-4.8 2.4-7.1 8.1-19.8 26.6-34.5 48.6-37.6 2.8-.4 5.7-.6 8.6-.6h2.9c8.9 0 16.1 7.2 16.1 16.1z" fill="#ffcb5c"/><path d="M117.5 177.2c8.2-13.8 28.3-24.9 44.4-24.9l26.1 96.8v8.1c0 8.9-7.2 16.1-16.1 16.1h-4.1c-44.7-.1-78.2-48.8-50.3-96.1z" fill="#a87148"/><path d="M168.7 262.8c-2.6-.9-5.3-1.1-7.9-.5-4.9 1.1-9.8 3-14.1 1.8-6-1.7-9.7-8.8-14.9-12-5.3-3.2-13.2-3.3-17.4-7.8s-3.7-12.4-6.6-17.9c-2.8-5.4-9.6-9.6-10.9-15.7-1.2-5.9 3.3-12.4 3.8-18.7.4-5.9-3.3-12.9-1.3-19 1.8-5.6 8.9-9.1 12.2-14.7.4-.7 76.5 90.9 76.5 90.9 0 10-9.9 17-19.4 13.6z" fill="#85c844"/><path d="M107.3 181.8c-.7-33.9 27.7-61.6 61.6-61.6h2.9c8.9 0 16.1 7.2 16.1 16.1l.2 121c0-8.9-7.2-16.1-16.1-16.1h-4.1c-33-.1-59.9-26.6-60.6-59.4z" fill="#ffcb5c"/><path d="M272.3 166.6c15.5-4 37.6 2.4 49 13.8l-50 86.9-5.7 5.7c-6.3 6.3-16.5 6.3-22.7 0l-2.9-2.9c-31.6-31.7-20.8-89.8 32.3-103.5z" fill="#a87148"/><path d="M248 263.3c-1.2-2.4-3-4.5-5.3-6-4.2-2.7-9.1-4.8-11.3-8.7-3.1-5.4-.7-13.1-2.1-19-1.5-6-7-11.7-6.8-17.9.2-6.1 6.2-11.4 8.1-17.3 1.8-5.8 0-13.6 3.4-18.8 3.3-5 11.1-6.4 15.9-10.6 4.5-3.9 6.8-11.5 12.5-14.4 5.2-2.6 12.7-.1 19-1.7.8-.2-10.1 118.4-10.1 118.4-7 7.1-19 5.1-23.3-4z" fill="#85c844"/><path d="M261.9 162.6c23.5-24.5 63.1-24 87.1 0l2 2c6.3 6.3 6.3 16.5 0 22.8l-85.4 85.7c6.3-6.3 6.3-16.5 0-22.8l-2.9-2.9c-23.3-23.4-23.6-61.1-.8-84.8z" fill="#ffcb5c"/><path d="M129.668 74.987l9.545 9.546-9.545 9.546-9.546-9.546z" fill="#f9af27"/><path d="M300.336 306.39l9.546 9.545-9.546 9.546-9.546-9.546z" fill="#f7772d"/><path d="M45.11 358.111l-9.547 9.546-9.546-9.546 9.546-9.545z" fill="#ffcb5c"/><path d="M141.296 306.368v13.5h-13.5v-13.5z" fill="#f7772d"/></svg>