<svg viewBox="0 0 469.44 415.1" xmlns="http://www.w3.org/2000/svg"><path d="M434.62.16H143.91L96 32.74a12.27 12.27 0 00-3.24 17l90.51 133.05a12.27 12.27 0 0017.05 3.24L436.82 25.2a12.28 12.28 0 003.24-17z" fill="#156a41"/><path d="M122.17.16l-19.78 13.45a12.28 12.28 0 00-3.24 17.05l90.52 133.05a12.26 12.26 0 0017 3.25L443.2 6.07a12.17 12.17 0 004.61-5.91z" fill="#5a0a00"/><path d="M295.15 9.38L291.88 7a78.47 78.47 0 01-8-6.8H181.14a20.09 20.09 0 00-2.15 6l-4.63 24.75 29.38 14.36a118.87 118.87 0 0030.24 10 118.61 118.61 0 0031.81 1.6l32.59-2.75 4.62-24.8a20.2 20.2 0 00-7.85-19.98z" fill="#fa9269"/><path d="M221.08.16l-4.42 23.6 40.46 7.58L262.96.16z" fill="#fabda5"/><path d="M244.06.89A42.87 42.87 0 00214.56 6L209 9.21a61.93 61.93 0 01-20.73 7.56 17.07 17.07 0 00-13.87 13.68 17.07 17.07 0 009.28 18.49l17.71 8.65a118.54 118.54 0 0030.23 10 118.7 118.7 0 0031.82 1.6l19.63-1.66a17.08 17.08 0 0015.35-13.87 17.08 17.08 0 00-7.93-17.74l-.78-.48a62.17 62.17 0 01-16.69-14.81l-3.14-4A42.9 42.9 0 00244.06.89z" fill="#ffe3ac"/><path d="M316.52.16a39.22 39.22 0 1066.29 0z"/><path d="M318.44.16a39.22 39.22 0 1071 0z" fill="#fffaf0"/><path d="M364.25.16a32 32 0 01.7 46.77A32 32 0 00381.26.16z" fill="#66d19e"/><path d="M364.25.16h-37.64a32 32 0 0022.75 48.39A31.85 31.85 0 00365 46.93a32 32 0 00-.7-46.77z" fill="#addec9"/><path d="M143.8 68.57l-.69-.35a32.85 32.85 0 0115.68-16.55 2.2 2.2 0 013.21 1.08 2.3 2.3 0 01-1.57 2.79 30.28 30.28 0 00-16.63 13.03z" fill="#156a41"/><path d="M143.52 68.41l.93.19a40.23 40.23 0 00-2.09-27.84 2.7 2.7 0 00-3.83-1.43 2.83 2.83 0 00-.67 3.88 37.13 37.13 0 015.66 25.2z" fill="#156a41"/><path d="M145.1 65.88l-.94-.15a40.21 40.21 0 0112-25.2 2.7 2.7 0 014.09 0 2.82 2.82 0 01-.78 3.85 37.16 37.16 0 00-14.37 21.5z" fill="#05a357"/><path d="M146.12 54.49l.93.2A40.16 40.16 0 00145 26.85a2.69 2.69 0 00-3.83-1.43 2.82 2.82 0 00-.67 3.87 37.08 37.08 0 015.62 25.2zm-3.07 22.29l-.84-.43a40.21 40.21 0 0119.2-20.27 2.69 2.69 0 013.87 1.32 2.81 2.81 0 01-1.93 3.42 37.18 37.18 0 00-20.3 15.96z" fill="#05a357"/><path d="M142.86 73.17l.94-.11a40.21 40.21 0 00-10.57-25.84 2.7 2.7 0 00-4.09-.17 2.84 2.84 0 00.56 3.89 37.14 37.14 0 0113.16 22.23zM148 50.38l-.93-.22a63.42 63.42 0 019.64-25 2.63 2.63 0 013.88-.72 2.7 2.7 0 01.18 3.85A60.18 60.18 0 00148 50.38zm1.88-17.1l1 .14A69.28 69.28 0 00151 4.11a2.87 2.87 0 00-3.67-2.27 3 3 0 00-1.71 3.86 66 66 0 014.26 27.58z" fill="#05a357"/><path d="M151 33.55l-.82-.2a56.14 56.14 0 018.58-22.22 2.33 2.33 0 013.45-.64 2.41 2.41 0 01.16 3.43A53.42 53.42 0 00151 33.55z" fill="#156a41"/><path d="M159.22 0a63.4 63.4 0 00-6.39 19.4l.93.22A60.35 60.35 0 01164.43 0z" fill="#05a357"/><path d="M156.22 0l-15.85 84.61 1.38.27L157.65 0z" fill="#156a41"/><circle cx="276.65" cy="41.39" fill="#b18977" r="3.87"/><circle cx="270.71" cy="57.54" fill="#b18977" r="1.64"/><circle cx="186.8" cy="33.32" fill="#b18977" r="1.69"/><circle cx="273.17" cy="39.7" fill="#ffe3ac" r="3.63"/><path d="M237.08 28.13a42.93 42.93 0 00-29.5 5.11l-5.52 3.22A62.37 62.37 0 01181.33 44a17.06 17.06 0 00-13.87 13.7l-4.79 25.54 29.39 14.36a118.52 118.52 0 0030.23 10 118.3 118.3 0 0031.82 1.61l32.58-2.75 4.8-25.59a17.08 17.08 0 00-7.93-17.74l-.78-.47a62.53 62.53 0 01-16.69-14.82l-3.14-4a42.87 42.87 0 00-25.87-15.71z" fill="#fa9269"/><path d="M242.75 98l11.69-62.39a43.1 43.1 0 00-17.36-7.49 43 43 0 00-23.53 2.22L202.3 90.43z" fill="#fabda5"/><path d="M232.23 54.05a42.87 42.87 0 00-29.5 5.1l-5.52 3.22a62.45 62.45 0 01-20.73 7.56 17.08 17.08 0 00-13.88 13.68 17.07 17.07 0 009.29 18.48l17.7 8.66a118.72 118.72 0 0030.24 10 118.2 118.2 0 0031.81 1.61l19.64-1.66a17.07 17.07 0 0015.34-13.87 17.09 17.09 0 00-7.92-17.74l-.78-.47a62 62 0 01-16.69-14.82l-3.15-4a42.84 42.84 0 00-25.85-15.75z" fill="#ffe3ac"/><circle cx="173.71" cy="86.42" fill="#b18977" r="2"/><circle cx="182.98" cy="95.16" fill="#b18977" r="3.18"/><circle cx="264.23" cy="108.26" fill="#b18977" r="2.19"/><circle cx="274.82" cy="100.81" fill="#b18977" r="2.02"/><circle cx="184.19" cy="90.18" fill="#ffe3ac" r="4.52"/><path d="M413.3 5.8h6.95v3.57h-6.95zM310.86 59.2h3.86V66h-3.86z" fill="#fa9269"/><circle cx="125.68" cy="18.82" fill="#ffe3ac" r="2.92"/><path d="M348.56 22.39l-4.16-1.12a5.46 5.46 0 01-3.87-3.87l-1.12-4.16a.7.7 0 01.88-.85l4.19 1.26a5.5 5.5 0 013.67 3.68l1.26 4.18a.7.7 0 01-.85.88zm4.7-1.73l-2.82-4.91a7.22 7.22 0 010-7.22l2.82-4.91a.93.93 0 011.62 0l2.72 5.08a7.27 7.27 0 010 6.84l-2.72 5.07a.93.93 0 01-1.62.05z" fill="#05a357"/><path d="M407.08 347.69l-2.08-3a21.44 21.44 0 0011.36-3.19 12.12 12.12 0 005.75-10.59 12.29 12.29 0 00-.67-3.69H284.75l-39.15 3a6.17 6.17 0 01-4.7-1.66l-1.47-1.37h-29.07a2.12 2.12 0 01-2 1.88l-55.84 3.49a1 1 0 00-1 1v.56a1 1 0 001 1l56.91-1.38a2.12 2.12 0 012.17 2.07v.26a2.13 2.13 0 01-2.07 2.18l-56.91 1.38a1 1 0 00-1 1v.57a1 1 0 001 1l55.95.79a2.12 2.12 0 012.09 2.07 2.12 2.12 0 01-2.14 2.17l-55.4-.45a2 2 0 00-2.05 2.08v.78l60.77 7a27.51 27.51 0 0022.92-8.21l6.28-6.51a6.17 6.17 0 014.62-1.88l70.34 2-8 15.11a3.3 3.3 0 00.38 3.64 8.21 8.21 0 007.53 2.87 17.56 17.56 0 004.18-1.19l-1.12 1.17-.35.4h-.05a12.08 12.08 0 00-2.71 10.26l1.45 7.27a.67.67 0 000 .2l1.22 6 1.57 7.86a2.52 2.52 0 003.07 1.95 15.64 15.64 0 004.78-2.08 64.45 64.45 0 00-3.85 19.49h76.53l11.05-34.32a38 38 0 00-4.6-32.98z" fill="#156a41"/><path d="M246.68 356.73a68 68 0 010-25.75 67.89 67.89 0 00-12.14-53.34l-.06-.08a67.93 67.93 0 01-11.1-23v-.15a67.9 67.9 0 00-34.06-42.68l-.09-.05a67.77 67.77 0 01-20.07-16 67.91 67.91 0 00-49.28-23.76h-.09a67.8 67.8 0 01-24.92-5.68l-.18-.07a67.9 67.9 0 00-54.55 0l-.17.08A67.89 67.89 0 0115 171.86h-.09A68.64 68.64 0 000 174.06v241h231.14q1.56-2.55 3.34-5l.06-.07a67.92 67.92 0 0012.14-53.26z" fill="#fff"/><path d="M210.67 283.31a155.39 155.39 0 00-143.31-95 154.62 154.62 0 00-60.55 12.23c-2.3 1-4.57 2-6.81 3.07v7.57q4.64-2.35 9.45-4.4a148.59 148.59 0 01163.09 31.89 148.9 148.9 0 0131.89 163.09q-2.91 6.86-6.45 13.34h7.68q2.7-5.24 5-10.7a156 156 0 000-121.09z" fill="#ffe3ac"/><path d="M182.4 321.91l65.5-5a67.18 67.18 0 01-1.22 14.09 68 68 0 000 25.75c0 .21.08.43.12.65a26 26 0 01-6.83.13l-58.11-6.29z" fill="#ffe3ac"/><path d="M183.12 350.29a75.29 75.29 0 010-13.26 75.3 75.3 0 00-18.22-56.09 75.72 75.72 0 01-7.75-10.66l-.06-.11a75.35 75.35 0 00-47.59-34.59l-.19-.05a75.61 75.61 0 01-12.39-4l-.22-.1a75.39 75.39 0 00-58.77 0l-.21.1a76 76 0 01-12.4 4l-.19.05A75.08 75.08 0 000 246.49V415.1h158.36a75.58 75.58 0 016.52-8.7 75.33 75.33 0 0018.22-56.09z" fill="#ffcf70"/><g fill="#ffc043"><path d="M179.87 340.15h-73.11a27.76 27.76 0 010-55.52h6.85a19.19 19.19 0 000-38.38H26.49V240h87.12a25.41 25.41 0 010 50.81h-6.85a21.54 21.54 0 000 43.08h73.11z"/><path d="M65.89 415.1h-6.22V307.26a13 13 0 00-13-13H22.85a19.88 19.88 0 110-39.75h96.62v6.22H22.85a13.66 13.66 0 100 27.31h23.82a19.24 19.24 0 0119.22 19.22z"/><path d="M13.56 271.91h103.1v6.22H13.56zM177.11 325h-48.66a14.91 14.91 0 010-29.81h12.88a9.34 9.34 0 009.33-9.34v-14.43h6.22v14.45a15.56 15.56 0 01-15.55 15.55h-12.88a8.69 8.69 0 000 17.38h48.66zm-96.3 9.59h6.22v80.51h-6.22zm-55.46-31.65h-18A10.85 10.85 0 010 300.06v7.41a17 17 0 007.35 1.69h18a13.1 13.1 0 0113.09 13.08v92.86h6.22v-92.86a19.33 19.33 0 00-19.31-19.3z"/><path d="M83.92 368.46h43.37v6.22H83.92zm-42.37-1.91H27.07a17.63 17.63 0 110-35.26h6.52v6.22h-6.52a11.41 11.41 0 100 22.82h14.48z"/><path d="M135.07 383.75h28.05a13.41 13.41 0 100-26.81h-51.65a3.52 3.52 0 01-3.51-3.51v-5.9h-6.22v5.9a9.75 9.75 0 009.73 9.73h51.65a7.19 7.19 0 110 14.37h-28.05a32.87 32.87 0 00-32.84 32.84v4.73h6.22v-4.73a26.65 26.65 0 0126.62-26.62z"/><path d="M156.45 399.88h7.81v-6.21h-7.81a36.51 36.51 0 00-33.22 21.43h7a30.25 30.25 0 0126.22-15.22zM0 355.94v12.28a29.12 29.12 0 0021.88 9.9h11.71v-6.22H21.88A23 23 0 010 355.94zm21.88-36.22A29.12 29.12 0 000 329.61v12.28a23 23 0 0121.88-15.95h11.71v-6.22zm-8.47 71.57A20.18 20.18 0 010 386.21v7.67a26.44 26.44 0 0013.41 3.63H31.7v-6.22z"/></g><path d="M86.55 407.11l-7.99 7.99h9.14l3.42-3.42zm-35.74 2.75a45.37 45.37 0 00-32.26-13.36h-7v6.5h7a38.94 38.94 0 0127.69 11.47l.66.67H56z" fill="#fff2d9"/><path d="M31.36 246.38h12.46l4.14-6.47H35.51z" fill="#ffe3ac"/><path d="M170.86 355.64l-4.57-4.57 4.43-4.44a21.58 21.58 0 000-30.52l-4.46-4.46a24.85 24.85 0 01-7.33-17.7v-.25a31.7 31.7 0 00-31.67-31.7h-4.19v-6.47h4.19a38.18 38.18 0 0138.13 38.14v.33a18.44 18.44 0 005.44 13.13l4.46 4.46a28.08 28.08 0 010 39.67z" fill="#fff2d9"/><path d="M132.25 255.89a39.08 39.08 0 00-5-.33h-4.19V262h4.19a31.51 31.51 0 015 .39zm45.18 92.91l-4.6-4.6a22 22 0 01-2.11 2.43l-4.43 4.44 4.57 4.57 4.43-4.43a28.38 28.38 0 002.14-2.41zM140 365.37a94 94 0 007.07-6.6l-4.79-4.63a88.381 88.381 0 01-5.15 4.91z" fill="#ffe3ac"/><path d="M149.11 355.32l-6-1.62a55 55 0 001.64-19.83c-1.15-11.5-6.16-22.25-13.75-29.48a85.6 85.6 0 00-11.51-8.67l3.44-5.15a89.77 89.77 0 0112.35 9.33c8.77 8.36 14.33 20.21 15.64 33.36a61 61 0 01-1.81 22.06z" fill="#fff2d9"/><path d="M125.67 300l3.41-5.2c-2-1.48-4.1-2.86-6.14-4.22l-3.44 5.15c2.06 1.37 4.15 2.77 6.17 4.27z" fill="#ffe3ac"/><path d="M110.77 356.41H87V350h23.74a13.3 13.3 0 0013.28-13.28v-1.93a13.9 13.9 0 00-13.89-13.89H7.15v-6.46h103a20.37 20.37 0 0120.35 20.35v1.93a19.76 19.76 0 01-19.73 19.69z" fill="#fff2d9"/><path d="M101.11 349.95H87.03v6.46h7.62z" fill="#ffe3ac"/><path d="M117.21 299.91h-6.46v-23.32a32.35 32.35 0 00-48.9-25.81 33 33 0 00-15.73 27.59h-6.46a38.81 38.81 0 0157-34.1 39.54 39.54 0 0120.58 32.07v23.6z" fill="#fff2d9"/><path d="M41.06 268.44a37.22 37.22 0 00-1.4 9.9h6.46a31.61 31.61 0 011.69-9.93z" fill="#ffe3ac"/><path d="M104.86 303.89H98.4v-22.17A10.88 10.88 0 0079.83 274l-7.75 7.75a16.27 16.27 0 01-23 0 6.62 6.62 0 00-11.29 4.68V303h-6.43v-16.54a13.08 13.08 0 0122.32-9.25 9.8 9.8 0 0013.83 0l7.75-7.75a17.34 17.34 0 0129.6 12.26z" fill="#fff2d9"/><path d="M98.4 297.43h6.46v6.46H98.4z" fill="#ffe3ac"/><path d="M54.52 349.43a66.54 66.54 0 01-26.28-5.34l2.55-5.93a61 61 0 0050.57-1.4l2.87 5.79a67 67 0 01-29.71 6.88zm94.13 8.22l-4.94-3.74A49.81 49.81 0 00125.64 279l2.69-5.58a56 56 0 0120.32 84.25z" fill="#fff2d9"/><path d="M27.83 296.52h9.99v4.1h-9.99zm-18.9 17.87h4.18v6.46H8.93z" fill="#ffe3ac"/><path d="M89.79 335.45H20.24a17.4 17.4 0 010-34.79h81.6a20.77 20.77 0 0020.74-20.74v-5.26a43.83 43.83 0 00-87.65 0v6.77h-6.46v-6.77a50.29 50.29 0 11100.57 0v5.26a27.23 27.23 0 01-27.2 27.2h-81.6a10.93 10.93 0 100 21.86h69.55z" fill="#fff2d9"/><path d="M86.55 407.11L81 412.65l2.45 2.45h4.25l3.42-3.42z" fill="#ffe3ac"/><path d="M107.82 415.1A46.28 46.28 0 0191 405.29l-4.36 4.77a52 52 0 006.46 5zM158 332.3l-4.38 4.75a46.33 46.33 0 01-16.89 78.05h14.67a54 54 0 007.3-5.84 52.75 52.75 0 00-.7-77zM26.83 387.09a36.48 36.48 0 01-26 10.76H0v6.46h.86a42.9 42.9 0 0030.54-12.65z" fill="#fff2d9"/><path d="M150 357.82A26.86 26.86 0 00136.9 341l-7.5-4.1-3.1 5.67 7.51 4.1a20.36 20.36 0 019.91 12.74 19.69 19.69 0 01-2.46 15.64c-.17.27-.33.51-.47.7a70.74 70.74 0 01-80.92 24.5A147.21 147.21 0 0142 391.93c-8.27-4.32-16.83-8.79-26.26-10.92A56.13 56.13 0 000 379.8v6.47a49.47 49.47 0 0114.36 1.05c8.61 1.94 16.42 6 24.69 10.34a151.58 151.58 0 0018.63 8.69A77.17 77.17 0 00146 379.61c.24-.31.48-.66.74-1.07a26.13 26.13 0 003.26-20.72z" fill="#fff2d9"/><path d="M142.3 354.14a88.54 88.54 0 01-94 21.78c-7.35-2.67-14.52-6.39-21.45-10-3.45-1.79-7-3.65-10.61-5.38A112.44 112.44 0 000 354v7a111.67 111.67 0 0113.38 5.52c3.5 1.68 7 3.51 10.43 5.28 7.12 3.7 14.48 7.53 22.25 10.35a95.86 95.86 0 0032.62 5.68 94.42 94.42 0 0021.32-2.39 96.27 96.27 0 0047.05-26.67z" fill="#fff2d9"/><path d="M94.63 340a42.4 42.4 0 01-53.58 14.47 89.78 89.78 0 01-8.94-5.23 97.75 97.75 0 00-9.34-5.47A50.34 50.34 0 000 338.7v6.47a43.87 43.87 0 0119.93 4.42 91.47 91.47 0 018.71 5.12 93.84 93.84 0 009.6 5.6 49.4 49.4 0 0021.37 4.82 48.73 48.73 0 0012.62-1.65A49.53 49.53 0 00100 343.63zm-83.38-79A22.89 22.89 0 000 264v7.95a16.52 16.52 0 0111.25-4.43 16.6 16.6 0 0116.58 16.58v16.59H11.25A16.52 16.52 0 010 296.23v7.95a22.89 22.89 0 0011.25 2.94h23v-23.05a23.07 23.07 0 00-23-23.07zm6.01-21.09a39.48 39.48 0 00-17.26 4v7.35a33.16 33.16 0 0117.26-4.83h26.56v-6.47z" fill="#fff2d9"/><path d="M79.58 381.19A17.48 17.48 0 0069 370a17.46 17.46 0 00-12.37 0 17.48 17.48 0 00-8 6.07 89.33 89.33 0 0030.95 5.12zm-33.52.99l-.18-.06a17.52 17.52 0 00-.52 4.24v.54a10.38 10.38 0 0014.46 9.56l1.5-.64a3.9 3.9 0 013.07 0l1.5.64a10.42 10.42 0 0011.49-2.27 10.43 10.43 0 002.94-6.35h-1.64a95.86 95.86 0 01-32.62-5.66z" fill="#bc8b2c"/><path d="M80.36 386.36a17.5 17.5 0 00-.78-5.17 89.33 89.33 0 01-30.87-5.13 17.54 17.54 0 00-2.83 6.06l.18.06a95.86 95.86 0 0032.62 5.68h1.64v-.94z" fill="#ffcf70"/><path d="M53.71 349.42a17.63 17.63 0 01-4.9 7.89 43 43 0 0021.73-.07c1.32-.36 2.62-.78 3.9-1.27a16.85 16.85 0 01-3.68-8.51 67.9 67.9 0 01-16.24 2z" fill="none"/><path d="M87.44 328.46a16.82 16.82 0 00-16.17 12.19 59.07 59.07 0 0010.09-3.89l2.87 5.79a64.87 64.87 0 01-13.47 4.91 16.85 16.85 0 003.68 8.54 43.08 43.08 0 0020.19-16l5.36 3.61a49.48 49.48 0 01-19.73 16.89 16.83 16.83 0 107.18-32zm-58.8 26.25c-2.53-1.61-4.95-3.15-7.46-4.47a10.42 10.42 0 003 6.22l.39.38a17.47 17.47 0 0016.38 4.66c-.9-.37-1.8-.76-2.69-1.19a93.84 93.84 0 01-9.62-5.6zm3.47-5.45a89.78 89.78 0 008.94 5.23 41.6 41.6 0 007.76 2.82 17.63 17.63 0 004.9-7.89 66.45 66.45 0 01-25.47-5.33l2.55-5.93A60.29 60.29 0 0054.36 343a17.55 17.55 0 00-5.06-10.88l-.39-.38a10.39 10.39 0 00-7.26-3 10.39 10.39 0 00-9.72 6.52l-.61 1.51a3.89 3.89 0 01-2.17 2.17l-1.52.61a10.45 10.45 0 00-5 4.26l.14.06a97.75 97.75 0 019.34 5.39z" fill="#bc8b2c"/><path d="M100 343.63L94.63 340a43.08 43.08 0 01-20.19 16 16.77 16.77 0 005.82 4.53 49.48 49.48 0 0019.74-16.9zm-51.19 13.68a41.6 41.6 0 01-7.76-2.82 89.78 89.78 0 01-8.94-5.23 97.75 97.75 0 00-9.34-5.47l-.14-.06a10.3 10.3 0 00-1.51 5.47 9.07 9.07 0 00.06 1c2.51 1.32 4.93 2.86 7.46 4.47a93.84 93.84 0 009.6 5.6c.89.43 1.79.82 2.69 1.19a17 17 0 003.2-1.08 17.6 17.6 0 004.68-3.07zm21.95-9.85a64.87 64.87 0 0013.47-4.91l-2.87-5.79a59.07 59.07 0 01-10.09 3.89 16.89 16.89 0 00-.65 4.64 17.32 17.32 0 00.14 2.17z" fill="#ffcf70"/><path d="M28.24 344.09a66.45 66.45 0 0025.47 5.33 17.66 17.66 0 00.65-6.45 60.29 60.29 0 01-23.57-4.81z" fill="#fff2d9"/><path d="M61.41 324.06a15.54 15.54 0 009.47-3.21H52a15.49 15.49 0 009.41 3.21zm-15.55-15.55a15.56 15.56 0 001.14 5.88h28.8a15.57 15.57 0 001.2-5.88c0-.47 0-.93-.07-1.39h-31c-.05.46-.07.88-.07 1.39zM61.41 293A15.53 15.53 0 0048 300.66h26.84A15.54 15.54 0 0061.41 293z" fill="#bc8b2c"/><path d="M52 320.85h18.88a15.59 15.59 0 004.93-6.46H47a15.62 15.62 0 005 6.46zm-4-20.19a15.51 15.51 0 00-2.07 6.46h31a15.49 15.49 0 00-2.06-6.46z" fill="#ffcf70"/><circle cx="92.97" cy="339.76" fill="#e11900" r="16.83"/><circle cx="92.97" cy="339.76" fill="#662a16" r="1.76"/><path d="M36.07 328.26l-.61 1.52a3.89 3.89 0 01-2.17 2.22l-1.51.61a10.39 10.39 0 00-6.52 9.72 10.39 10.39 0 003 7.26l.38.39a17.51 17.51 0 0019.58 3.57 17.51 17.51 0 008.78-8.8 17.49 17.49 0 00-3.58-19.57l-.38-.39a10.42 10.42 0 00-7.26-3 10.39 10.39 0 00-9.71 6.47z" fill="#e11900"/><path d="M35.78 329.33l-.1-.09-.22.54a3.89 3.89 0 01-2.17 2.22l-.49.2.08.08a2.05 2.05 0 002.9-2.9z" fill="#662a16"/><path d="M63.9 392.38l1.51-.65a4 4 0 013.07 0l1.5.65a10.39 10.39 0 0011.48-2.28 10.38 10.38 0 003-7.28v-.54a17.51 17.51 0 00-11.33-16.38 17.59 17.59 0 00-12.38 0 17.53 17.53 0 00-11.31 16.38v.54a10.38 10.38 0 003 7.28 10.39 10.39 0 0011.46 2.28z" fill="#e11900"/><path d="M64.87 391.82v.18l.54-.23a4 4 0 013.07 0l.48.21v-.12a2 2 0 10-4.09 0z" fill="#662a16"/><circle cx="66.94" cy="302.98" fill="#fff" r="15.55"/><path d="M117.61 395.9a15.56 15.56 0 00-1-16 93.84 93.84 0 01-16.61 5.54 92.24 92.24 0 01-11.73 1.93c0 .46-.07.92-.07 1.39a15.57 15.57 0 009.52 14.34q3.36-.68 6.63-1.66a70 70 0 0013.26-5.54zm-6.53-20.9a15.55 15.55 0 00-20.39 5.38q4-.54 7.85-1.44a85.57 85.57 0 0012.54-3.94zM25 397a45.72 45.72 0 017.55 1.74 15.24 15.24 0 001.8-3.47Q32.13 394.1 30 393a43 43 0 01-5 4zm10.22-8.57a15.55 15.55 0 00-27.37-8.6 54.58 54.58 0 017.93 1.17 86.27 86.27 0 0119.44 7.43zm-29.05 9.03a36.29 36.29 0 0017.2-7.31 60.72 60.72 0 00-9-2.83 49.11 49.11 0 00-9.73-1.18 15.72 15.72 0 00-.45 3.72 15.4 15.4 0 001.98 7.6zm5.45 5.54l-.19.05a15.59 15.59 0 0015.21.79 39.52 39.52 0 00-8.09-.84z" fill="#bc8b2c"/><path d="M116.6 379.92a15.71 15.71 0 00-5.52-4.91A85.57 85.57 0 0198.54 379q-3.89.9-7.85 1.44a15.49 15.49 0 00-2.38 7 92.24 92.24 0 0011.69-2 93.84 93.84 0 0016.6-5.52zm-84.06 18.77A45.72 45.72 0 0025 397a43 43 0 005-4q2.19 1.05 4.39 2.18a15.62 15.62 0 00.95-5.36c0-.48 0-1-.07-1.43A86.27 86.27 0 0015.78 381a54.58 54.58 0 00-7.93-1.18 15.53 15.53 0 00-3.22 6.31 49.11 49.11 0 019.73 1.18 60.72 60.72 0 019 2.83 36.29 36.29 0 01-17.2 7.31 15.55 15.55 0 005.27 5.55l.19-.05h6.93a39.52 39.52 0 018.09.84 15.74 15.74 0 005.9-5.1z" fill="#ffcf70"/><circle cx="109.33" cy="384.33" fill="#fff" r="15.55"/><circle cx="25.26" cy="384.33" fill="#fff" r="15.55"/><path d="M41.64 264.83l2.94-4.83a.7.7 0 00-1-1l-4.79 3a33.3 33.3 0 01-12.08 4.44 22.43 22.43 0 00-18.88 23.1l.26 6 6 .26a22.41 22.41 0 0023.11-18.89 33.37 33.37 0 014.44-12.08z" fill="#05a357"/><path d="M8.34 296.94l19-20.64-20.64 19a1.17 1.17 0 000 1.69 1.17 1.17 0 001.64-.05z" fill="#0f462d"/><path d="M98.9 309.98h3.58v5.32H98.9zm-15.088-23.688l4.399-4.399 2.022 2.023-4.398 4.398zM44.799 364.63l4.398-4.398 2.022 2.023-4.398 4.398z" fill="#156a41"/><path d="M98.9 313.73h3.58v2.22H98.9zm18.59-4.581l3.033-3.034 1.386 1.386-3.033 3.034z" fill="#05a357"/><path d="M37.496 314.474l2.199-2.199 3.521 3.521-2.199 2.2zM20.47 312.75v-3.11h4.98v3.11z" fill="#156a41"/><path d="M20.47 302.63v-2.02h4.98v2.02z" fill="#05a357"/><path d="M127.208 367.884l3.224-3.224 3.521 3.521-3.224 3.224z" fill="#156a41"/><path d="M130.067 365.021l2.199-2.199 3.521 3.522-2.199 2.199zm-90.759-58.074l2.2-2.2 2.113 2.115-2.199 2.2z" fill="#05a357"/><path d="M11.838 360.777l2.914-2.914 2.793 2.794-2.914 2.913zm41.022 45.237l2.914-2.914 2.793 2.793-2.914 2.914z" fill="#156a41"/><path d="M91.21 399.89h4.11v6.92h-4.11z" fill="#05a357"/><path d="M91.21 398.36h4.11v2.73h-4.11zm-28.43-52.55h2v5.17h-2z" fill="#156a41"/><path d="M67.3 337.17h2v5.17h-2zm26.47 27.6h4.3v4.3h-4.3z" fill="#05a357"/><path d="M47.04 289.59h4.38v1.46h-4.38zm2.64-4.48h4.38v2.16h-4.38z" fill="#156a41"/><path d="M216.12 343.86c0 3.69-.14 7.37-.4 11l6.74.73q.43-5.83.44-11.75a157.35 157.35 0 00-2-24.91l-6.79.52a149.66 149.66 0 012.01 24.41z" fill="#ffc043"/><path d="M393.49 364v-27.12h-40.33l-20.06 21a11.33 11.33 0 00-2.92 10l4 20a2.36 2.36 0 002.88 1.83A14.75 14.75 0 00348.17 377l.64-6.16z" fill="#5a0a00"/><path d="M348.81 370.8l-.43-7.8a7.35 7.35 0 014.34-7.12l35.73-16 5 23.47zm-3.34-25.88l-2.39 6.74a9.87 9.87 0 01-8.9 6.55l-1.46.06z"/><path d="M334.86 387.42a5.62 5.62 0 00.93-4.37l-1.43-7a2.5 2.5 0 00-2-2 .72.72 0 00-.85.85l2.52 12.35a.44.44 0 00.83.17z" fill="#993f21"/><path d="M335 328.78l-12.14 23a3.12 3.12 0 00.35 3.42 7.7 7.7 0 007.07 2.69 16.46 16.46 0 0011.85-8.13l5-8.76h16.53v-12.22h-29" fill="#5a0a00"/><path d="M323.91 351.4a5.58 5.58 0 003.48-2.8l3.33-6.37a2.49 2.49 0 00-.28-2.75.72.72 0 00-1.19.12l-5.85 11.17a.44.44 0 00.51.63z" fill="#993f21"/><path d="M415.58 342.83l-24.06-35.18a12.46 12.46 0 00-10.27-5.42h-13.68v20.52l16 20v17.38L354 389.6l3.3 25.5h49.48l13.28-41.23a35.65 35.65 0 00-4.48-31.04z" fill="#c14f29"/><path d="M231.64 312.4L175 321.72v.74a1.92 1.92 0 002 1.86l51.89-2.95a2 2 0 012.11 1.94 2 2 0 01-1.87 2l-52.39 3.27a1 1 0 00-.89 1v.53a1 1 0 001 .93l53.39-1.29a2 2 0 012 1.94v.31a2 2 0 01-1.94 2l-53.3 1.28a1 1 0 00-.93 1v.53a1 1 0 00.93.93l52.49.73a2 2 0 012 1.94 2 2 0 01-2 2l-52-.42a1.9 1.9 0 00-1.92 1.95v.74l57 6.56a25.78 25.78 0 0021.5-7.71l5.89-6.1a5.82 5.82 0 014.33-1.77L413.15 340a20.16 20.16 0 0011.14-3 11.34 11.34 0 005.39-9.94 11.33 11.33 0 00-5.87-9.67 20.19 20.19 0 00-11.27-2.44l-148.45 11.5a5.78 5.78 0 01-4.41-1.56l-6.19-5.81a25.79 25.79 0 00-21.85-6.68z" fill="#fff"/><path d="M367.3 302.23h-19.06a15.92 15.92 0 00-8 2.14l-16.38 9.47a2.86 2.86 0 00-.66 4.45l1.67 1.77a15.3 15.3 0 0016.88 3.69l9.6-3.9h21.27z" fill="#5a0a00"/><path d="M360.6 302.23h-3l-4.54 17.62h6.79l.75-17.5"/><path d="M324.86 314.13a5.57 5.57 0 004.44-.5l6.22-3.6a2.49 2.49 0 001.23-2.47.71.71 0 00-1.07-.54l-10.91 6.31a.44.44 0 00.09.8z" fill="#993f21"/><path d="M381.74 368.71l-.61-2.56a49 49 0 01-.25-21.21 99.71 99.71 0 001-35.38l-.61-4a11.44 11.44 0 00-11.27-9.72h-1a9.31 9.31 0 00-9 7.1l-1.82 7.44a108.28 108.28 0 00-2.92 19.94l-.3 5.81a115.84 115.84 0 01-6.86 33.69l-6.54 17.94a60.54 60.54 0 00-3.31 27.34h44.41c.49-8 .94-15.53 1.28-21.82a87.1 87.1 0 00-2.2-24.57z" fill="#c14f29"/><path d="M373.21 315.33a11.45 11.45 0 01-10.57-1.17 2.86 2.86 0 01-1.23-2.67l.82-7.36a7.55 7.55 0 0113.58 1.5L375 313a2.84 2.84 0 01-1.79 2.33z" fill="#fa9269"/><path d="M12.57 30.51l1 1a21.28 21.28 0 0014.65 6.24A7.69 7.69 0 0036.08 30a21.32 21.32 0 00-6.24-14.66l-1-1A21.31 21.31 0 0014.16 8a7.68 7.68 0 00-7.83 7.83 21.3 21.3 0 006.24 14.68z" fill="#156a41"/><path d="M16.15 26.93l1 1a21.28 21.28 0 0014.68 6.27 7.69 7.69 0 007.83-7.83 21.28 21.28 0 00-6.24-14.65l-1-1a21.28 21.28 0 00-14.68-6.27 7.69 7.69 0 00-7.83 7.83 21.28 21.28 0 006.24 14.65z" fill="#bc8b2c"/><circle cx="34.51" cy="28.88" r="1.77"/><path d="M249.17 218.81l-.62-1.36a3.13 3.13 0 00-4.67-1.25l-1.22.86-1.48-.14a3.13 3.13 0 00-3.42 3.42l.14 1.48-.9 1.18a3.13 3.13 0 001.25 4.67l1.36.62.61 1.36a3.14 3.14 0 004.68 1.25l1.21-.87 1.48.15a3.14 3.14 0 003.43-3.42l-.15-1.49.87-1.21a3.14 3.14 0 00-1.25-4.68zm47.31 163.48l-.87-.4a2 2 0 00-2.83 1.36l-.23.94-.79.56a2 2 0 00-.23 3.13l.69.67.09 1a2 2 0 002.6 1.77l.93-.27.88.4a2 2 0 002.82-1.36l.23-.94.79-.56a2 2 0 00.23-3.13l-.69-.67-.09-1a2 2 0 00-2.6-1.77z" fill="#fff"/><path d="M309.32 181.46l-5.18-3.6a.78.78 0 00-1.14 1l2.95 5.59a37.22 37.22 0 014.11 13.77 25.06 25.06 0 0024.49 22.65l6.71.12.7-6.66a25.06 25.06 0 00-19.47-27.09 37 37 0 01-13.17-5.78z" fill="#156a41"/><path d="M312 178.39l-5-3.86a.78.78 0 00-1.19.94l2.65 5.73a37 37 0 013.4 14 25.06 25.06 0 0023.29 23.88l6.69.47 1-6.62a25 25 0 00-18-28.05 37.24 37.24 0 01-12.84-6.49z" fill="#05a357"/><path d="M343.48 219.42L323 195.74l18.47 25.31a1.31 1.31 0 001.87.25 1.32 1.32 0 00.14-1.88z" fill="#0f462d"/><path d="M291.17 295l-4.26-1.15a5.61 5.61 0 01-4-4l-1.15-4.26a.72.72 0 01.9-.87L287 286a5.62 5.62 0 013.76 3.76l1.29 4.29a.72.72 0 01-.88.95z" fill="#06c167"/><path d="M85.32 129.28l-1.72 6.41a8.48 8.48 0 01-6 6l-6.41 1.72A1.08 1.08 0 0169.9 142l1.95-6.46a8.45 8.45 0 015.66-5.66L84 128a1.08 1.08 0 011.32 1.28zM47.94 97.33a.54.54 0 00.57-.92 46.57 46.57 0 00-31.24-8.73 3.12 3.12 0 00-3.06 3.61 3.28 3.28 0 004 2.25 42.94 42.94 0 0129.73 3.79z" fill="#0f462d"/><path d="M59 105.29a.54.54 0 01-.58.91 46.53 46.53 0 01-21.74-24.09 3.12 3.12 0 011.87-4.35 3.28 3.28 0 013.77 2.55A43 43 0 0059 105.29z" fill="#05a357"/><path d="M66.13 68.35h7.44v7.44h-7.44zm276.09 58.56h4.39v7.84h-4.39zm18.31-42.92h8.19v4.86h-8.19z" fill="#fabda5"/><path d="M128.12 147.04h6.17v8.05h-6.17zM14.39 128.72h13.13v4.59H14.39z" fill="#06c167"/><path d="M298.738 258.536l8.514-8.514 3.535 3.536-8.513 8.513z" fill="#0f462d"/><circle cx="107.82" cy="108.7" fill="#ffe3ac" r="2.62"/><circle cx="76.63" cy="17.53" fill="#ffe3ac" r="1.63"/><circle cx="298.76" cy="141.94" fill="#ffe3ac" r="2.43"/><circle cx="254.44" cy="173.76" fill="#ffe3ac" r="2.85"/><circle cx="422.6" cy="47.97" fill="#ffe3ac" r="2.7"/><circle cx="467.39" cy="17.56" fill="#ffe3ac" r="2.05"/></svg>