<svg viewBox="0 0 1440 416" xmlns="http://www.w3.org/2000/svg"><path d="M1440.3 368.3v28.4l-204.9-214 5.4-5.3zM1295 415.7h-23l-131.5-137.5 5.4-5.3z" fill="#9fd789"/><circle cx="1236.6" cy="225.2" fill="#074b32" r="62"/><circle cx="1236.6" cy="225.2" fill="#fff" r="52.2"/><path d="M1217.6 244.2l37.9-38c-4.9-4.9-11.6-7.9-19-7.9-14.8 0-26.8 12-26.8 26.8 0 7.6 3 14.3 7.9 19.1z" fill="#f99999"/><path d="M1217.6 244.2c4.9 4.9 11.6 7.9 19 7.9s14.1-3 19-7.9l-19-19z" fill="#074b32"/><path d="M1255.5 244.2c4.9-4.9 7.9-11.6 7.9-19s-3-14.1-7.9-19l-19 19z" fill="#d63b3b"/><path d="M1440.3 319.5v28.4l-205-214.1 5.4-5.3zm-94.3 96.2h-27.3l-178.3-186.4 5.4-5.3z" fill="#dfa47c"/></svg>