<svg width="1052" height="170" xmlns="http://www.w3.org/2000/svg">
 <g>
  <title>background</title>
  <rect x="-1" y="-1" width="1054" height="172" id="canvas_background" fill="none"/>
 </g>

 <g>
  <title>Layer 1</title>
  <path d="m787.3,105.2c0,-21 -16.8,-37.5 -38,-37.5c-20.9,0 -38,16.5 -38,37.5s17.1,37.5 38,37.5c21.2,0 38,-16.5 38,-37.5m31,-61.4l0,122.9l-31.6,0l0,-11.1c-11,9.1 -24.9,14.2 -40,14.2c-37.4,0 -66.6,-28.7 -66.6,-64.6c0,-35.8 29.3,-64.6 66.6,-64.6c15.1,0 29,5.1 40,14.2l0,-11l31.6,0zm105,95l-23.8,0c-7.2,0 -11.9,-3.1 -11.9,-9.7l0,-57.5l35.6,0l0,-27.8l-35.6,0l0,-35l-31.9,0l0,35l-24,0l0,27.9l24,0l0,65.3c0,16.5 11.9,29.6 33.3,29.6l34.2,0l0,-27.8l0.1,0zm72,31c36.5,0 57.1,-17.1 57.1,-40.7c0,-16.8 -12.2,-29.3 -37.7,-34.7l-27,-5.4c-15.6,-2.8 -20.6,-5.7 -20.6,-11.4c0,-7.4 7.5,-11.9 21.4,-11.9c15.1,0 26.1,4 29.3,17.6l31.6,0c-1.7,-25.6 -20.6,-42.7 -58.8,-42.7c-33,0 -56.2,13.4 -56.2,39.3c0,17.9 12.8,29.6 40.3,35.3l30.1,6.8c11.9,2.3 15.1,5.4 15.1,10.2c0,7.7 -9,12.5 -23.5,12.5c-18.2,0 -28.7,-4 -32.7,-17.6l-31.9,0c4.7,25.6 24.1,42.7 63.5,42.7m-442.7,-169.6l119.1,0l0,28.4l-86.9,0l0,40.7l84.6,0l0,27.6l-84.6,0l0,41.2l86.9,0l0,28.4l-119.1,0l0,-166.3z" fill="#06c167" id="svg_1"/>
  <text fill="#ffffff" stroke-width="0" stroke-opacity="null" fill-opacity="null" x="18.490089" y="25.447305" id="svg_3" font-size="24" font-family="Helvetica, Arial, sans-serif" text-anchor="start" xml:space="preserve" transform="rotate(-0.2441643923521042 254.632553100592,88.06192779541023) matrix(9.696081796968869,0,0,9.328888485378723,-183.3576404542017,-71.40375815577688) " stroke="null">Salle</text>
 </g>
</svg>